<svg xmlns="http://www.w3.org/2000/svg" xmlns:xlink="http://www.w3.org/1999/xlink" version="1.1" x="0px" y="0px" viewBox="7.5 7.5 50 62.5" enable-background="new 7.5 7.5 50 50" xml:space="preserve" ><path fill="orange" d="M28.757,20.659c0.002,0.013-0.001,0.026,0.003,0.04c0.003,0.011,0.014,0.015,0.018,0.025c0.032,0.09,0.083,0.172,0.16,0.231  c0.009,0.006,0.019,0.008,0.028,0.014c0.042,0.028,0.084,0.057,0.136,0.071c0.046,0.014,0.094,0.02,0.14,0.02  c0.045,0,0.092-0.006,0.138-0.02l1.29-0.37c0.265-0.076,0.418-0.353,0.342-0.619c-0.076-0.265-0.351-0.417-0.619-0.342l-0.418,0.12  l0.346-1.19c0.077-0.265-0.075-0.542-0.34-0.62c-0.267-0.078-0.543,0.075-0.62,0.34l-0.6,2.06c-0.004,0.013,0,0.026-0.003,0.04  c-0.007,0.033-0.008,0.065-0.008,0.099S28.75,20.626,28.757,20.659z"/><path fill="orange" d="M27.626,17.903c0.098,0.098,0.226,0.146,0.354,0.146s0.256-0.049,0.354-0.146c0.195-0.195,0.195-0.512,0-0.707  c-0.913-0.912-2.396-0.911-3.307,0c-0.195,0.195-0.195,0.512,0,0.707s0.512,0.195,0.707,0  C26.256,17.382,27.106,17.383,27.626,17.903z"/><path fill="orange" d="M31.79,18.05c0.128,0,0.256-0.049,0.354-0.146c0.254-0.254,0.591-0.393,0.95-0.393c0.001,0,0.003,0,0.004,0  c0.356,0.001,0.688,0.14,0.936,0.391c0.195,0.196,0.511,0.198,0.708,0.005c0.196-0.194,0.198-0.511,0.004-0.707  c-0.436-0.442-1.02-0.687-1.644-0.688c-0.003,0-0.006,0-0.008,0c-0.626,0-1.214,0.244-1.657,0.687c-0.195,0.195-0.195,0.512,0,0.707  C31.534,18.001,31.662,18.05,31.79,18.05z"/><path fill="orange" d="M27.07,18.36h-1.01c-0.276,0-0.5,0.224-0.5,0.5s0.224,0.5,0.5,0.5h1.01c0.276,0,0.5-0.224,0.5-0.5S27.346,18.36,27.07,18.36  z"/><path fill="orange" d="M34.12,18.86c0-0.276-0.224-0.5-0.5-0.5h-1c-0.276,0-0.5,0.224-0.5,0.5s0.224,0.5,0.5,0.5h1  C33.896,19.36,34.12,19.136,34.12,18.86z"/><path fill="orange" d="M31.595,21.696c-1.12,0.289-2.302,0.289-3.42,0c-0.266-0.072-0.54,0.091-0.609,0.359c-0.069,0.267,0.091,0.54,0.359,0.609  c0.641,0.166,1.301,0.249,1.96,0.249c0.66,0,1.319-0.083,1.96-0.249c0.268-0.069,0.428-0.342,0.359-0.609  C32.135,21.787,31.861,21.625,31.595,21.696z"/><path fill="orange" d="M51.584,34.17c0.262-1.355,0.406-2.75,0.406-4.16c0-12.145-9.882-22.059-22.1-22.1c-12.192,0-22.11,9.914-22.11,22.1  c0,12.187,9.918,22.101,22.11,22.101c1.517,0,3.037-0.162,4.526-0.47c2.34,3.411,6.157,5.449,10.304,5.449  c6.893,0,12.5-5.604,12.5-12.49C57.22,40.355,55.111,36.491,51.584,34.17z M33.957,30.941l-1.919-1.729l3.475-3.448  c0.23,0.092,0.447,0.175,0.676,0.245L33.957,30.941z M29.63,41.26l-1.836-2.033l1.217-5.496h1.237l1.217,5.496L29.63,41.26z   M30.446,32.73h-1.633l-1.922-1.874l1.251-1.126h2.976l1.25,1.126L30.446,32.73z M25.304,30.94l-2.162-4.796  c0.286-0.077,0.538-0.153,0.763-0.232l3.318,3.3L25.304,30.94z M31.104,28.73h-2.948l-3.266-3.249  c0.406-0.228,0.855-0.586,1.105-1.137c1.208,0.945,2.637,1.516,3.884,1.516c0.002,0,0.003-0.001,0.005-0.001  c0.002,0,0.003,0.001,0.005,0.001c1.251,0,2.687-0.574,3.896-1.524c0.161,0.357,0.426,0.672,0.799,0.939L31.104,28.73z M29.89,24.86  c-0.002,0-0.003,0.001-0.005,0.001c-0.001,0-0.003-0.001-0.005-0.001c-1.223,0-2.688-0.682-3.824-1.781  c-1.158-1.107-1.796-2.474-1.796-3.849v-2.15c0-0.541,0.092-1.058,0.24-1.556c1.885-0.097,3.103-0.87,3.619-2.33  c0.93,1.08,2.961,1.948,7.044,1.999c0.216,0.603,0.348,1.232,0.348,1.887v2.15c0,1.375-0.638,2.742-1.798,3.851  C32.578,24.178,31.113,24.86,29.89,24.86z M24.893,14.504c0.544-1.063,1.404-1.913,2.472-2.442  C27.18,13.554,26.406,14.32,24.893,14.504z M28.454,11.664c1.947-0.51,4.014,0.041,5.413,1.44c0.324,0.325,0.588,0.694,0.821,1.082  C32.184,14.107,28.84,13.626,28.454,11.664z M32.245,44.1H18.69c-1.246,0-2.26-1.014-2.26-2.26V30.7c0-2.962,2.752-3.61,5.415-4.237  l0.311-0.074l2.518,5.586c0.006,0.013,0.02,0.018,0.026,0.03c0.018,0.033,0.031,0.068,0.057,0.098  c0.021,0.024,0.05,0.035,0.074,0.054c0.021,0.016,0.038,0.031,0.06,0.043c0.075,0.042,0.155,0.069,0.238,0.069c0,0,0,0,0,0l0,0  c0.001,0,0.002,0,0.002,0c0.064,0,0.127-0.015,0.188-0.04c0.005-0.002,0.01-0.001,0.015-0.003c0.021-0.009,0.034-0.026,0.053-0.038  c0.025-0.015,0.052-0.025,0.075-0.045l0.684-0.615l1.915,1.867l-1.3,5.867c-0.003,0.014,0.001,0.027-0.001,0.042  c-0.004,0.033-0.004,0.066-0.001,0.101c0.002,0.031,0.005,0.062,0.013,0.092c0.008,0.03,0.02,0.058,0.034,0.086  c0.015,0.031,0.031,0.061,0.052,0.089c0.008,0.011,0.011,0.023,0.021,0.034l2.33,2.58c0.099,0.109,0.235,0.165,0.371,0.165  c0.017,0,0.033-0.008,0.05-0.009c0.017,0.001,0.033,0.009,0.05,0.009c0.136,0,0.272-0.056,0.371-0.165l2.33-2.58  c0.009-0.011,0.012-0.023,0.021-0.034c0.021-0.028,0.038-0.058,0.053-0.089c0.013-0.028,0.025-0.056,0.033-0.086  c0.008-0.03,0.011-0.061,0.013-0.093c0.002-0.034,0.003-0.066-0.001-0.101c-0.002-0.014,0.002-0.027-0.001-0.041l-1.3-5.867  l1.915-1.868l0.684,0.616c0.022,0.021,0.05,0.03,0.075,0.046c0.019,0.011,0.031,0.028,0.052,0.037  c0.005,0.002,0.01,0.001,0.015,0.003C34,32.254,34.064,32.27,34.13,32.27c0.083,0,0.164-0.028,0.238-0.069  c0.022-0.012,0.039-0.027,0.059-0.042c0.025-0.019,0.055-0.031,0.076-0.055c0.027-0.03,0.04-0.066,0.059-0.101  c0.006-0.011,0.019-0.016,0.023-0.027l2.579-5.699c0.253,0.063,0.501,0.125,0.765,0.188c2.66,0.625,5.411,1.272,5.411,4.236v1.49  c-4.491,0.481-8.35,3.33-10.142,7.538C32.614,41.129,32.304,42.599,32.245,44.1z M44.72,56.09c-3.922,0-7.536-1.971-9.67-5.271  c-1.197-1.85-1.829-4-1.829-6.219c0-1.543,0.303-3.053,0.899-4.483c1.704-4.003,5.441-6.677,9.771-6.979  c0.273-0.028,0.546-0.038,0.828-0.038c2.155,0,4.246,0.593,6.048,1.715c3.414,2.113,5.452,5.771,5.452,9.785  C56.22,50.936,51.061,56.09,44.72,56.09z"/><path fill="orange" d="M41.44,37.13c-0.276,0-0.5,0.224-0.5,0.5v13.94c0,0.276,0.224,0.5,0.5,0.5s0.5-0.224,0.5-0.5V37.63  C41.94,37.354,41.717,37.13,41.44,37.13z"/><path fill="orange" d="M51.245,44.546c-0.001-0.02-0.006-0.037-0.009-0.057c-0.005-0.028-0.01-0.055-0.02-0.082  c-0.007-0.021-0.016-0.041-0.026-0.062c-0.003-0.005-0.007-0.009-0.01-0.014c-0.003-0.007-0.008-0.013-0.012-0.02  c-0.011-0.018-0.015-0.037-0.028-0.054l-2.12-2.66c-0.172-0.217-0.486-0.252-0.702-0.079c-0.216,0.172-0.252,0.486-0.079,0.702  l1.474,1.849H44.69v-3.16c0-0.276-0.224-0.5-0.5-0.5s-0.5,0.224-0.5,0.5v7.37c0,0.276,0.224,0.5,0.5,0.5s0.5-0.224,0.5-0.5v-3.21  h5.03l-1.481,1.858c-0.173,0.216-0.137,0.53,0.079,0.702c0.092,0.074,0.202,0.109,0.312,0.109c0.146,0,0.292-0.064,0.391-0.188  l2.12-2.66c0.016-0.02,0.021-0.043,0.033-0.063c0.008-0.014,0.016-0.027,0.022-0.042c0.006-0.013,0.013-0.023,0.018-0.037  c0.011-0.029,0.017-0.058,0.022-0.088c0.004-0.021,0.007-0.042,0.008-0.063c0.001-0.01,0.006-0.018,0.006-0.027  C51.25,44.562,51.245,44.555,51.245,44.546z"/></svg>