<?xml version="1.0" encoding="UTF-8"?>
<svg width="1200pt" height="1200pt" version="1.1" viewBox="0 0 1200 1200" xmlns="http://www.w3.org/2000/svg">
 <g>
  <path fill="orange" d="m999.94 470.62h-399.94v-42.188c0-28.5-23.062-51.562-51.562-51.562h-400.88v695.62c0 29.062 23.438 52.5 52.5 52.5h800.06c29.062 0 52.5-23.438 52.5-52.5v-549.38c-0.1875-29.062-23.625-52.5-52.688-52.5zm-78.938 525.75h-642c-17.25 0-31.125-13.875-31.125-31.125s13.875-31.125 31.125-31.125h642c17.25 0 31.125 13.875 31.125 31.125s-13.875 31.125-31.125 31.125z"/>
  <path fill="orange" d="m999.94 470.62h-399.94v-42.188c0-28.5-23.062-51.562-51.562-51.562h-400.88v695.62c0 29.062 23.438 52.5 52.5 52.5h800.06c29.062 0 52.5-23.438 52.5-52.5v-549.38c-0.1875-29.062-23.625-52.5-52.688-52.5zm-78.938 525.75h-642c-17.25 0-31.125-13.875-31.125-31.125s13.875-31.125 31.125-31.125h642c17.25 0 31.125 13.875 31.125 31.125s-13.875 31.125-31.125 31.125z"/>
  <path fill="orange" d="m264.75 339.94v-220.12h670.5v313.69h44.812v-328.88c0.1875-16.312-13.125-29.625-29.438-29.625h-701.25c-16.312 0-29.625 13.312-29.625 29.625v235.31z"/>
  <path fill="orange" d="m309 164.25v175.69h239.25c48.938 0 88.5 39.75 88.5 88.5v5.25h254.06v-269.44zm418.31 199.12c-41.25 0-74.625-33.375-74.625-74.625s33.375-74.625 74.625-74.625 74.625 33.375 74.625 74.625-33.375 74.625-74.625 74.625z"/>
 </g>
</svg>
