<svg xmlns="http://www.w3.org/2000/svg" data-name="Layer 1" viewBox="0 0 95 118.75" x="0px" y="0px"><path  fill="orange" d="M91.1,5.934H3.9A1.392,1.392,0,0,0,2.5,7.325V67.35A1.392,1.392,0,0,0,3.9,68.741H33.058V77.52H27.347a5.781,5.781,0,0,0-5.774,5.774v4.381a1.392,1.392,0,0,0,1.392,1.391h49.07a1.392,1.392,0,0,0,1.392-1.391V83.294a5.781,5.781,0,0,0-5.774-5.774h-5.71V68.741H91.1A1.392,1.392,0,0,0,92.5,67.35V7.325A1.392,1.392,0,0,0,91.1,5.934ZM89.713,8.717V57.079H71.089L69.195,53.36a24.927,24.927,0,0,0,2.664-6.425L76.576,45.4V35.82l-4.715-1.533a24.975,24.975,0,0,0-2.666-6.426l2.252-4.423-6.774-6.775-4.422,2.253a24.929,24.929,0,0,0-6.427-2.665l-1.533-4.717H42.709l-1.532,4.717a24.981,24.981,0,0,0-6.427,2.665l-4.421-2.253-6.777,6.776,2.254,4.42a24.915,24.915,0,0,0-2.665,6.428L18.424,35.82V45.4l4.717,1.534a24.958,24.958,0,0,0,2.665,6.427l-1.895,3.717H5.287V8.717ZM68.05,57.244,64.134,61.16l-4.019-2.048-.67.424a22.249,22.249,0,0,1-4.069,2.019V57.988a19.085,19.085,0,1,0-15.752,0v3.566a22.244,22.244,0,0,1-4.069-2.018l-.67-.425L30.867,61.16l-3.916-3.915L29,53.225l-.424-.669a22.2,22.2,0,0,1-2.907-7.011l-.173-.774L21.207,43.38V37.842l4.287-1.393.173-.773a22.193,22.193,0,0,1,2.907-7.01L29,28l-2.047-4.02,3.916-3.915,4.018,2.046.67-.422a22.193,22.193,0,0,1,7.01-2.908l.773-.174,1.393-4.287h5.538l1.4,4.287.772.174a22.182,22.182,0,0,1,7.009,2.907l.669.423,4.02-2.046,3.916,3.916L66,28l.425.67a22.256,22.256,0,0,1,2.908,7.01l.174.772,4.285,1.394V43.38l-4.287,1.391-.173.774a22.2,22.2,0,0,1-2.907,7.011l-.425.67ZM41.759,49.2A10.77,10.77,0,0,1,40.7,31.751v7.727a2.452,2.452,0,0,0,2.449,2.448h8.707A2.451,2.451,0,0,0,54.3,39.478V31.75A10.768,10.768,0,0,1,53.241,49.2a1.391,1.391,0,0,0-.648,1.176V67.492a5.093,5.093,0,1,1-10.186,0V50.376A1.391,1.391,0,0,0,41.759,49.2Zm1.063-21.172a1.4,1.4,0,0,0-1.353-.062,13.548,13.548,0,0,0-1.845,23.15v3.765a16.3,16.3,0,1,1,15.752,0V51.116a13.546,13.546,0,0,0-1.845-23.15,1.392,1.392,0,0,0-2.012,1.246v9.931H43.481V29.212A1.4,1.4,0,0,0,42.822,28.028ZM5.287,59.862H25.632l4.7,4.7,4.421-2.253a25.008,25.008,0,0,0,4.874,2.2v1.457H5.287ZM70.644,83.294v2.989H24.356V83.294A3,3,0,0,1,27.347,80.3H67.653A3,3,0,0,1,70.644,83.294ZM59.16,77.52H35.841V68.741h3.891a7.866,7.866,0,0,0,15.536,0H59.16Zm1.392-11.562H55.376V64.5a25,25,0,0,0,4.874-2.2l4.423,2.254,4.7-4.7H89.713v6.1Z"/></svg>