<?xml version="1.0" encoding="UTF-8" standalone="no"?> <svg id="Layer_1" data-name="Layer 1" xmlns="http://www.w3.org/2000/svg" viewBox="0 0 128 128"><defs><style>.cls-1{fill:white;}.cls-2{fill:#1d75b8;}</style></defs><title>n</title><path class="cls-1"  d="M19.67946,85.61022a11.01765,11.01765,0,0,0,21.62989,0L42.99125,76.941A11.60562,11.60562,0,0,0,31.49333,63.7714H29.49548A11.60557,11.60557,0,0,0,17.99762,76.941Z"/><path class="cls-1"  d="M53.5038,102.05926,41.76151,97.889,30.4944,109.156l-11.267-11.267L7.48507,102.05926a3.27342,3.27342,0,0,0-2.10626,2.404L1.3672,123.343H59.62167l-4.01161-18.87977A3.27318,3.27318,0,0,0,53.5038,102.05926Z"/><path class="cls-1" d="M97.50553,61.68664h-.99886A11.60562,11.60562,0,0,0,85.00875,74.85623l1.68184,8.66923a11.01765,11.01765,0,0,0,21.62989,0l1.68191-8.66923A11.60562,11.60562,0,0,0,98.50446,61.68664Z"/><path class="cls-1" d="M122.62119,104.46327a3.27318,3.27318,0,0,0-2.10626-2.404L108.77264,97.889H86.23849L74.4962,102.05926a3.27342,3.27342,0,0,0-2.10626,2.404L68.37833,123.343H126.6328Z"/><path  class="cls-2" d="M92.26752,45.012a5.2254,5.2254,0,0,0,3.70762-1.536L117.0873,22.364a5.24365,5.24365,0,1,0-7.4154-7.41588L92.268,32.35237,85.33974,25.424a5.24387,5.24387,0,1,0-7.416,7.41588L88.55974,43.476A5.22683,5.22683,0,0,0,92.26752,45.012Z"/><path class="cls-2" d="M33.67308,52.42053a4.5727,4.5727,0,0,1-3.21937,1.34685A4.47339,4.47339,0,0,1,26.052,49.33281a4.39549,4.39549,0,0,1,4.36889-4.40236,4.33715,4.33715,0,0,1,4.50039,4.2707A4.48981,4.48981,0,0,1,33.67308,52.42053Z"/><path  class="cls-2" d="M38.43615,27.48772l-1.37953,1.21551c-1.31417,1.18236-2.66086,2.36472-2.825,4.40173-.09866,1.47819-.19717,3.022-.19717,4.73039a.9909.9909,0,0,1-.1315.68984c-.03268.03283-.16417.16417-.72268.13134-.36118-.03283-.72268-.03283-1.084-.03283H30.22372c-1.08386,0-2.20086,0-3.252.03283-.49268,0-.62417-.13134-.62417-.59134-.09835-3.31787-.06551-7.09574,1.14984-9.75629.88685-2.03669,2.595-3.285,4.20472-4.50055a15.83985,15.83985,0,0,0,3.64622-3.31755c1.83953-2.52952,1.47834-4.50055.887-5.71574a6.63912,6.63912,0,0,0-5.91291-3.18653,7.05111,7.05111,0,0,0-6.89857,5.35425c-.32835,1.08417-.42685,1.14984-.85386,1.14984-.23,0-.49283-.03283-.887-.06567-1.83953-.263-3.67921-.49283-5.51873-.72268-.657-.06567-.75567-.29583-.68984-.78835C16.197,8.73034,23.75247,4.657,30.84789,4.657A16.24777,16.24777,0,0,1,41.524,8.33633a11.40235,11.40235,0,0,1,4.00787,8.40944C45.4989,21.246,41.78685,24.531,38.43615,27.48772Z"/></svg>